<?xml version="1.0" encoding="utf-8"?>
<!-- Generator: Adobe Illustrator 18.1.0, SVG Export Plug-In . SVG Version: 6.00 Build 0)  -->
<svg version="1.1" id="Layer_1" xmlns="http://www.w3.org/2000/svg" xmlns:xlink="http://www.w3.org/1999/xlink" x="0px" y="0px"
	 viewBox="0 0 500 500" enable-background="new 0 0 500 500" xml:space="preserve">
<g>
	<polygon fill="#010101" points="261.2,270.9 461.8,103.2 250,103.2 38.2,103.2 238.8,270.9 238.8,482 184.7,500 245.9,500 249,500 
		254.1,500 315.3,500 261.2,482 	"/>
	<polygon fill="#010101" points="432.3,0 423.7,0 367,98.5 377.8,98.5 	"/>
	<path fill="#010101" d="M118.8,85c0,5,1.5,9.7,4.1,13.5H164c2.5-3.9,4.1-8.5,4.1-13.5c0-13.5-11-24.7-24.7-24.7
		C129.8,60.3,118.8,71.3,118.8,85z"/>
	<path fill="#010101" d="M229.1,98.5c0.7-2.3,1.1-4.6,1.1-7.1c0-13.5-11-24.7-24.7-24.7c-13.5,0-24.7,11-24.7,24.7
		c0,2.4,0.4,4.8,1.1,7.1H229.1z"/>
</g>
</svg>
