<?xml version="1.0" encoding="utf-8"?>
<!-- Generator: Adobe Illustrator 18.1.0, SVG Export Plug-In . SVG Version: 6.00 Build 0)  -->
<svg version="1.1" id="Layer_1" xmlns="http://www.w3.org/2000/svg" xmlns:xlink="http://www.w3.org/1999/xlink" x="0px" y="0px"
	 viewBox="0 0 500 500" enable-background="new 0 0 500 500" xml:space="preserve">
<g>
	<path fill="#010101" d="M171.5,318.2c-2.4-2.8-5.1-4.9-7.7-6.2s-5.2-1.7-7.5-1.4c-2.3,0.2-4.2,1.2-5.6,2.6c-3,3-3.8,7.4-4,11.5
		c-0.1,4.3,0.4,8.5,1.7,12.7c0.4,1.1,1.4,3.8,2.1,8.3c0.6,4.4,0.6,10.7-2,17.3c-1.3,3.3-3.2,6.8-5.8,10c-2.4,3.1-5.6,5.7-9.4,7.6
		c-3.8,1.9-8.3,3-13,3c-4.6,0-9.5-1.2-13.8-3.4c-2.1-1.1-4.3-2.6-6-4.2c-1.8-1.5-3.3-3.3-4.6-5.5c-2.5-4-3.8-8.9-3.8-13.6
		c0-9.6,5.7-18.6,12.8-22.3c3.6-1.9,7.4-2.7,10.8-2.7c3.4,0,6.4,0.7,8.8,1.7c2.4,0.9,4,2,5.1,2.8c1.1,0.8,1.7,1.3,1.7,1.3
		s-0.5-0.6-1.4-1.5c-0.9-0.9-2.5-2.4-4.7-3.7s-5.3-2.7-9.1-3.3c-3.8-0.6-8.3-0.5-12.8,1.2c-2.3,0.8-4.6,2-6.8,3.6
		c-2.3,1.5-4.2,3.4-6,5.7c-3.7,4.4-6.4,10.1-7.5,16.5c-1.1,6.4-0.5,13.4,2.4,20c1.4,3.3,3.2,6.4,5.6,9.3c2.3,2.8,4.9,5.2,7.8,7.5
		c5.8,4.4,12.8,7.4,20,8.7c7.4,1.3,14.9,0.8,21.9-1.4c7.1-2.1,13.5-5.9,18.7-10.6c5-4.5,9.1-9.6,12.1-14.9
		c3.1-5.3,5.1-10.8,6.3-15.9s1.7-9.8,1.7-14c0-8.3-1.5-13.9-2.1-15.9C175.9,324.6,173.9,321,171.5,318.2z"/>
	<path fill="#010101" d="M271,204.6c4.7,5.8,7.4,11.7,8.8,15.9c1.4,4.3,1.9,6.8,1.9,6.8s0-2.6-0.7-7.1c-0.7-4.5-2.4-11-6.3-18.1
		c-3.9-7.1-10.2-14.7-19.2-20.6c-4.4-3-9.5-5.3-14.9-7.1c-5.5-1.8-11.4-2.7-17.4-2.8c-3.1-0.1-6,0.1-8.9,0.5c-3,0.4-5.9,0.8-8.8,1.4
		c-5.8,1.3-11.4,3.3-16.6,5.8c-10.6,5.1-19.3,12.3-25.7,19.9c-6.5,7.6-10.7,15.4-13.2,21.6c-2.5,6.2-3.6,10.8-3.8,12.5
		c-1.2,6.8,0.2,13.2,3,17.3s6.8,6.2,10.7,5.6c3.9-0.5,7.2-3.1,9.7-6.4c2.5-3.3,4.3-7.2,5-11.6c0.2-1.1,0.5-4.2,1.5-8.4
		c1.1-4.3,3-10.1,6.6-16.1c3.7-6,9-12.3,16.1-17.4c3.6-2.6,7.6-4.7,11.9-6.5c2.1-0.9,4.4-1.7,6.6-2.3c2.3-0.6,4.6-1.2,6.9-1.5
		c9.1-1.4,18.9-0.1,27.2,3.6C259.6,193.1,266.4,198.8,271,204.6z"/>
	<path fill="#010101" d="M443.3,316.7c-3.4-2.7-7.8-5.1-12.8-6.6c-1.2-0.4-3.6-1.1-6.8-1.7c-3.2-0.6-7.5-1.1-12.6-0.8
		c-5,0.2-10.8,1.1-17,3.1c-6,2-12.5,5.3-18.3,10.1c-6,4.7-11.4,11.5-14.7,19.4c-3.3,7.9-4.6,17-3.2,26c1.3,8.9,5.3,17.6,11.5,24.4
		c6.3,7.1,15.4,11.6,24.5,12.5c4.6,0.5,9.3,0,13.6-1.2c4.4-1.2,8.5-3.2,12.1-5.8c1.8-1.3,3.4-2.8,5-4.5c1.5-1.7,2.8-3.4,3.9-5.3
		c2.1-3.8,3.4-8.1,3.7-12.2c0.4-4.2-0.2-8.3-1.5-12c-1.3-3.7-3.3-7-5.8-9.8c-2.6-2.7-5.7-4.7-9-5.9c-3.3-1.2-6.6-1.5-9.8-1.3
		c-3.2,0.2-6,1.2-8.5,2.5c-2.5,1.3-4.6,3.1-6.2,5c-3.2,3.9-4,8.4-3.8,11.9c0.2,3.6,1.4,6,2.3,7.6c0.9,1.5,1.7,2.3,1.7,2.3
		s-0.6-0.7-1.4-2.4c-0.8-1.7-1.7-4.2-1.7-7.5c0.1-3.3,1.3-7.4,4.4-10.7c3.1-3.2,8.1-5.6,13.4-5.6c2.7,0,5.5,0.6,8.1,1.8
		s5,3.1,6.8,5.3c3.7,4.7,5.6,11.4,4.5,17.8c-0.5,3.2-1.8,6.3-3.6,9c-0.9,1.3-2,2.6-3.2,3.7c-1.2,1.1-2.5,2-3.9,3
		c-5.8,3.6-12.9,4.9-19.4,3.6c-6.6-1.2-12.6-5-16.5-10.1c-2-2.6-3.6-5.6-4.7-8.7c-1.2-3.1-1.8-6.3-2-9.4c-0.5-6.3,0.9-12.5,3.7-17.6
		c2.6-5.1,6.4-9.1,10.7-11.9c4.4-3,8.9-4.9,13.2-5.9c4.3-1.1,8.2-1.4,11.6-1.3c6.8,0.2,11.1,1.9,12.7,2.4c6.4,2,12.1,4.5,17,6.3
		c4.7,1.8,8.8,2.8,11.1,1.1c1.2-0.8,1.8-2.5,1.7-4.5c-0.1-2.1-0.9-4.7-2.7-7.6C449.4,322.5,446.8,319.4,443.3,316.7z"/>
	<polygon fill="#010101" points="271.7,88.2 294.4,116.1 327.6,84.9 294.4,53.7 	"/>
	<polygon fill="#010101" points="285,438.9 307,446.3 314.4,417.6 285.2,412.1 	"/>
	<polygon fill="#010101" points="0,224.9 24.7,257.9 58.6,246.3 40.8,204.3 	"/>
	<polygon fill="#010101" points="384.3,254.2 400.6,244.9 396.2,223.7 374.1,232.6 	"/>
	<polygon fill="#010101" points="248.6,288.5 248.6,298 283.3,282.3 278,266.4 	"/>
	<polygon fill="#010101" points="158.1,80.4 127.7,57.2 116.3,69.4 149.8,84.9 	"/>
	<polygon fill="#010101" points="486.2,204.3 475.8,239.7 481.5,247.3 500,213.8 	"/>
	<path fill="#010101" d="M314.8,317.7c-5.6,0-10.1,4.5-10.1,10.1c0,5.6,4.5,10.1,10.1,10.1c5.6,0,10.1-4.5,10.1-10.1
		C324.8,322.2,320.3,317.7,314.8,317.7z"/>
	<path fill="#010101" d="M372.2,187.3c5.6,0,10.1-4.5,10.1-10.1c0-5.6-4.5-10.1-10.1-10.1c-5.6,0-10.1,4.5-10.1,10.1
		C362.1,182.8,366.6,187.3,372.2,187.3z"/>
	<path fill="#010101" d="M97.6,149.8c7.6,0,13.8-6.2,13.8-13.8s-6.2-13.8-13.8-13.8s-13.8,6.2-13.8,13.8
		C83.8,143.6,90,149.8,97.6,149.8z"/>
	<polygon fill="#010101" points="189.4,119.2 183.7,115.9 176.9,127.4 188.1,133.9 	"/>
</g>
</svg>
