<?xml version="1.0" encoding="utf-8"?>
<!-- Generator: Adobe Illustrator 15.0.0, SVG Export Plug-In . SVG Version: 6.00 Build 0)  -->
<!DOCTYPE svg PUBLIC "-//W3C//DTD SVG 1.1//EN" "http://www.w3.org/Graphics/SVG/1.1/DTD/svg11.dtd">
<svg version="1.1" id="Layer_1" xmlns="http://www.w3.org/2000/svg" xmlns:xlink="http://www.w3.org/1999/xlink" x="0px" y="0px"
	 width="500px" height="500px" viewBox="0 0 500 500" enable-background="new 0 0 500 500" xml:space="preserve">
<g>
	<path fill="#010101" d="M249.512,162.518c-73.518,0-134.604,42.131-143.15,96.009h286.302
		C384.117,204.648,323.029,162.518,249.512,162.518z M158.756,243.057c-4.262-1.861-9.849-7.316-4.778-9.497
		C159.05,231.378,158.756,243.057,158.756,243.057z M179.572,204.539c-4.592-3.062,5.357-9.184,5.357-9.184
		C185.694,199.942,184.164,207.601,179.572,204.539z M220.041,231.929c-5.512,0.319-1.251-10.556-1.251-10.556
		C222.16,224.575,225.551,231.609,220.041,231.929z M262.14,189.517c-4.263-1.861-9.851-7.316-4.778-9.497
		C262.431,177.838,262.14,189.517,262.14,189.517z M285.812,230.896c-4.592-3.062,5.356-9.184,5.356-9.184
		C291.933,226.301,290.404,233.958,285.812,230.896z M336.555,222.627c-4.234,3.54-7.301-7.73-7.301-7.73
		C333.871,215.457,340.785,219.084,336.555,222.627z"/>
	<path fill="#010101" d="M393.723,263.922H106.275c-3.214,0-5.845,2.912-5.845,6.472v16.183c0,3.559,2.631,6.473,5.845,6.473
		h287.448c3.214,0,5.848-2.914,5.848-6.473v-16.183C399.57,266.834,396.937,263.922,393.723,263.922z"/>
	<path fill="#010101" d="M106.362,321.302c0,8.899,6.578,16.181,14.615,16.181h257.07c8.037,0,14.617-7.281,14.617-16.181v-21.781
		H106.362V321.302z"/>
</g>
</svg>
