<?xml version="1.0" encoding="utf-8"?>
<!-- Generator: Adobe Illustrator 18.1.0, SVG Export Plug-In . SVG Version: 6.00 Build 0)  -->
<svg version="1.1" id="Layer_1" xmlns="http://www.w3.org/2000/svg" xmlns:xlink="http://www.w3.org/1999/xlink" x="0px" y="0px"
	 viewBox="0 0 500 500" enable-background="new 0 0 500 500" xml:space="preserve">
<g>
	<path fill="#010101" d="M323.5,106c-21.6-8.2-42.6-12.3-62.6-12.3c-71.2,0-112.6,51.3-130.3,73.2c-2.7,3.5-5.9,7.3-6.6,7.8
		c-10.4,4.6-12.9,41.6-12.9,55.5c-0.1,30,6.4,102.5,70,132.4c8.9,12.9,17.3,29.5,15.9,34.7l-0.2,89.3h117.1V374.1
		c6.4-5.2,27.1-21.6,54.1-40.6c20.9-14.7,46.8-71.2,39.9-126.2C403.4,174.1,385.4,129.5,323.5,106z M208.4,405.4
		c25.4-0.4,76.2-1.5,93.7-4.8v14.1c-11.3,2.1-59.6,8.3-93.7,12.5V405.4z M208.4,438.9c27-3.3,75.9-9.4,93.7-12.5v25
		c-12,1.1-59.8,3.6-93.7,5.2V438.9z M208.4,475.1v-6.7c60.1-2.8,83.9-4.3,93.7-5.3v12L208.4,475.1L208.4,475.1z M361,324.1
		c-33,23.3-56.6,42.6-56.9,42.9l-2.1,1.7v20.8l-0.4-0.7c-5.7,2.4-51.3,4.3-93,5c-1.6-13.8-14.4-32.7-18.8-39l-0.9-1.2l-1.5-0.6
		c-30.7-14-50.8-40.5-59.7-78.7c-9.8-41.8-2.2-82.6,2.1-89.1c2.5-1.5,5.1-4.6,10-10.8c16.6-20.6,55.6-68.8,121.3-68.8
		c18.6,0,38.3,3.8,58.5,11.5c56.4,21.3,72.7,61.7,76.6,91.9C402.4,258.8,379.1,311.2,361,324.1z"/>
	<path fill="#010101" d="M132.3,89.4c1.5,1.9,3.6,2.8,5.7,2.8c1.6,0,3.2-0.5,4.5-1.6c3.2-2.5,3.7-7.1,1.2-10.3l-25.8-32.7
		c-2.5-3.2-7.1-3.7-10.3-1.2s-3.7,7.1-1.2,10.3L132.3,89.4z"/>
	<path fill="#010101" d="M34.4,127.5l34.9,22.7c1.2,0.7,2.6,1.2,4,1.2c2.4,0,4.7-1.2,6.2-3.3c2.2-3.3,1.2-7.9-2.1-10.2l-34.9-22.7
		c-3.3-2.2-7.9-1.2-10.2,2.1C30.1,120.8,31.1,125.2,34.4,127.5z"/>
	<path fill="#010101" d="M47.3,255.8c3.2,0,6.1-2.1,7.1-5.3c1.1-3.8-1.1-7.9-5-9l-40-11.5c-3.8-1.1-7.9,1.1-9,5
		c-1.1,3.8,1.1,7.9,5,9l40,11.5C45.9,255.7,46.6,255.8,47.3,255.8z"/>
	<path fill="#010101" d="M72.2,319l-38.3,16.4c-3.7,1.6-5.5,5.8-3.8,9.5c1.2,2.7,3.8,4.5,6.7,4.5c1,0,2-0.2,2.8-0.6l38.3-16.4
		c3.7-1.6,5.5-5.8,3.8-9.5C80.3,319.1,75.9,317.4,72.2,319z"/>
	<path fill="#010101" d="M121.9,388.8l-29.5,29.4c-2.8,2.8-2.8,7.4,0,10.3c1.5,1.5,3.3,2.1,5.2,2.1s3.7-0.7,5.2-2.1l29.5-29.4
		c2.8-2.8,2.8-7.4,0-10.3C129.3,385.9,124.7,385.9,121.9,388.8z"/>
	<path fill="#010101" d="M216.3,62.9c4.1,0,7.3-3.2,7.3-7.3V20.6c0-4.1-3.2-7.3-7.3-7.3c-4.1,0-7.3,3.2-7.3,7.3v35.2
		C209,59.7,212.3,62.9,216.3,62.9z"/>
	<path fill="#010101" d="M365.9,62.6c0.7,0.2,1.6,0.4,2.4,0.4c3.1,0,5.9-2,6.9-5l11.2-33.3c1.2-3.8-0.7-7.9-4.6-9.3
		c-3.8-1.2-7.9,0.7-9.3,4.6l-11.2,33.3C360.1,57.1,362.1,61.3,365.9,62.6z"/>
	<path fill="#010101" d="M459.6,129.5c0.9,0,1.6-0.1,2.5-0.4l33.1-11.8c3.8-1.4,5.8-5.6,4.5-9.3c-1.4-3.8-5.6-5.8-9.3-4.5
		l-33.1,11.8c-3.8,1.4-5.8,5.6-4.5,9.3C453.8,127.6,456.6,129.5,459.6,129.5z"/>
	<path fill="#010101" d="M494.4,243.4l-34.3-7.8c-4-0.9-7.8,1.6-8.8,5.5c-0.9,4,1.6,7.8,5.5,8.8l34.3,7.8c0.5,0.1,1.1,0.1,1.6,0.1
		c3.3,0,6.3-2.4,7.2-5.7C500.7,248.3,498.3,244.3,494.4,243.4z"/>
	<path fill="#010101" d="M466.9,354.3L433.6,343c-3.8-1.2-7.9,0.7-9.3,4.6c-1.2,3.8,0.7,7.9,4.6,9.3l33.3,11.3
		c0.7,0.2,1.6,0.4,2.4,0.4c3.1,0,5.9-1.9,6.9-5C472.9,359.8,470.8,355.7,466.9,354.3z"/>
</g>
</svg>
