<?xml version="1.0" encoding="utf-8"?>
<!-- Generator: Adobe Illustrator 15.0.0, SVG Export Plug-In . SVG Version: 6.00 Build 0)  -->
<!DOCTYPE svg PUBLIC "-//W3C//DTD SVG 1.1//EN" "http://www.w3.org/Graphics/SVG/1.1/DTD/svg11.dtd">
<svg version="1.1" id="Layer_1" xmlns="http://www.w3.org/2000/svg" xmlns:xlink="http://www.w3.org/1999/xlink" x="0px" y="0px"
	 width="500px" height="500px" viewBox="0 0 500 500" enable-background="new 0 0 500 500" xml:space="preserve">
<g>
	<path fill="#010101" d="M455.923,168.767h-51.755L249.818,36.6c-2.049-1.75-5.059-1.75-7.107,0L88.367,168.767H44.066
		C19.765,168.767,0,188.532,0,212.833V420.64c0,24.301,19.765,44.071,44.066,44.071h411.856c24.302,0,44.077-19.771,44.077-44.071
		V212.833C500,188.532,480.225,168.767,455.923,168.767z M246.265,47.945l141.1,120.822H105.171L246.265,47.945z M473.554,420.64
		c0,9.696-7.935,17.631-17.631,17.631H44.066c-9.69,0-17.625-7.935-17.625-17.631V212.833c0-9.69,7.935-17.625,17.625-17.625
		h411.856c9.696,0,17.631,7.935,17.631,17.625V420.64z"/>
	<path fill="#010101" d="M169.824,283.66c-5.491-11.403-7.604-9.151-18.309-12.396c-5.347-1.536-10.555-3.794-16.041-3.794
		c-17.172,0-28.292,22.38-36.457,34.909c-5.629,8.447-10.139,24.92-10.139,35.049c0,19.429,11.964,32.519,31.814,32.519
		c1.409,0,2.956-0.277,4.359-0.561c25.203-5.912,36.745-29.562,43.362-52.226c1.964-6.899,4.082-13.794,4.082-20.971
		C172.497,291.824,171.649,287.604,169.824,283.66z M127.311,349.396c-2.812,2.951-8.586,8.025-12.807,8.025
		c-4.088,0-5.075-8.17-5.075-11.259c0-19.146,14.082-54.339,31.958-63.207c1.12-0.705,2.391-0.982,3.66-0.982
		c5.064,0,5.763,7.178,5.763,10.827C150.811,310.122,139.274,337.006,127.311,349.396z"/>
	<path fill="#010101" d="M209.237,265.778c-2.247,0-14.776,0.139-14.776,3.522c0,1.403,1.825,4.359,1.825,6.616
		c0,2.247-2.529,8.021-3.373,10.417c-4.787,13.516-21.675,61.515-21.675,72.491c0,1.271,0.416,2.817,1.408,3.661l12.53,4.509
		c7.737,0,9.989-28.575,14.632-33.079c1.547,0.416,3.799,1.403,5.485,1.403c2.967,0,8.869-3.799,11.692-5.347
		c13.233-7.183,34.626-21.26,34.626-38.292C251.611,271.974,224.728,265.778,209.237,265.778z M204.589,319.973h-0.416
		c3.245-13.938,8.869-26.889,13.65-40.256c5.497,0.987,13.661,1.975,13.661,9.29C231.483,298.857,210.224,319.973,204.589,319.973z"
		/>
	<path fill="#010101" d="M301.451,308.153l-2.534-0.145c-5.63-0.277-11.265,0.987-16.89,1.548l-0.986-0.844
		c1.265-3.66,5.906-19.002,8.02-20.976c1.831-1.687,27.167-4.077,31.249-4.077c1.409,0,2.956,0.277,3.943-1.126
		c-2.534-5.353-0.144-12.108-8.025-12.529c-14.221-0.704-28.72,0.282-42.935-0.277c-4.083,2.956-24.776,72.774-24.915,72.913
		c-0.982,3.239-2.113,6.611-2.113,10.139c0,1.687,2.817,11.964,3.799,12.945c1.27,1.271,3.1,1.543,4.931,1.543
		c2.956,0,5.912-0.838,8.868-0.982c4.648-0.139,35.054-2.396,37.311-3.655c0.833-2.534,1.403-4.786,1.403-7.46
		c0-6.334-9.855-5.629-14.498-5.629c-2.535,0-19.008,0.848-19.008-1.836c0-5.203,3.384-14.216,5.208-19.424
		c0.566-1.83,0.705-2.396,2.535-3.095c4.082-1.409,23.367-2.113,28.853-2.252c2.54-0.145,6.057-0.283,6.057-3.805
		C311.724,315.757,305.251,308.297,301.451,308.153z"/>
	<path fill="#010101" d="M397.455,263.388c-0.566,0-1.126,0-1.553,0.283c-3.373,0.981-2.808,1.687-3.373,4.786
		c-1.687,9.146-5.347,17.877-8.164,26.884c-3.517,11.687-5.069,23.655-8.164,35.47c-0.705-1.121-1.548-7.316-1.97-9.146
		c-3.101-11.265-8.025-27.027-8.025-39.13c0-3.101,0.422-5.63-2.674-7.609c-3.799-2.391-11.259-3.661-15.763-3.661
		c-1.836,0-4.37,0.15-5.912,1.271c-1.975,1.27-2.962,13.09-4.082,16.19c-5.353,15.906-20.982,56.733-20.982,70.949
		c0,4.787,8.586,10.416,12.956,10.416c3.655,0,3.517-2.956,4.36-5.773c2.251-3.095,12.102-43.079,17.032-56.729
		c2.108,10.421,10.14,55.603,22.103,55.603c15.486,0,13.517,1.271,17.178-11.542l18.714-66.719c0.854-2.956,1.975-6.057,1.975-9.156
		C411.11,267.47,405.197,263.388,397.455,263.388z"/>
	<path fill="#010101" d="M432.914,208.356H67.081c-14.562,0-26.398,10.213-26.398,22.764v171.232
		c0,12.556,11.835,22.77,26.398,22.77h365.833c14.557,0,26.397-10.214,26.397-22.77V231.12
		C459.312,218.569,447.471,208.356,432.914,208.356z M450.513,402.353c0,8.367-7.897,15.182-17.599,15.182H67.081
		c-9.707,0-17.599-6.814-17.599-15.182V231.12c0-8.367,7.892-15.176,17.599-15.176h365.833c9.701,0,17.599,6.809,17.599,15.176
		V402.353z"/>
</g>
</svg>
