<?xml version="1.0" encoding="utf-8"?>
<!-- Generator: Adobe Illustrator 18.1.0, SVG Export Plug-In . SVG Version: 6.00 Build 0)  -->
<svg version="1.1" id="Layer_1" xmlns="http://www.w3.org/2000/svg" xmlns:xlink="http://www.w3.org/1999/xlink" x="0px" y="0px"
	 viewBox="0 0 500 500" enable-background="new 0 0 500 500" xml:space="preserve">
<path fill="#010101" d="M307.5,10.9c-0.1,0-0.1,0-0.2,0c-6.3-1.4-12.3-2.5-17.6-3.3l-0.7-0.1c-3.3-0.6-6.7-1.2-10.1-1.8
	c-6-1.1-12-2.1-18.1-3.1l0,0c-9.3-1.4-18.9-2.4-29.2-2.4c-2.5,0-5.1,0.1-7.6,0.2c-0.1,0-0.2-0.1-0.4-0.1c-0.5-0.1-1,0-1.4,0.2
	c-18.3,1.2-35.7,5.8-52.8,14.3c-1,0.5-1.9,1-2.9,1.4c-7.1,3.7-14.5,8.2-21.7,13.2C85.5,71,102.3,169.8,102.5,170.7
	c0,0.2,0.1,0.5,0.2,0.7l17.5,25.4c0.4,0.5,0.8,0.7,1.4,0.7l0,0c0.6,0,1.1-0.2,1.4-0.7l1.2-1.8c12.3,24.4,98.9,196.1,118.4,220.1
	c-28.4,3.6-52.5,8.7-52.8,8.7c-0.7,0.1-1.3,0.7-1.3,1.5c-0.1,1.3-0.1,8.9-0.1,18.8v0.1l0,0c0,21.1,0.1,52.2,0.1,54.2
	c0,0.5,0.2,1,0.6,1.3c0.4,0.2,0.7,0.5,1.2,0.5c0.1,0,0.1,0,0.2,0l122.5-13.8c0.8-0.1,1.5-0.8,1.5-1.7v-69.3c0-0.8-0.6-1.5-1.4-1.7
	c-6.7-1.2-14.9-1.8-24.4-1.8c-2.4,0-4.9,0-7.4,0.1c8.2-8.3,25.1-35.7,62.2-121c24.8-57,47.8-115.3,52.1-126.3l1.5,1
	c0.5,0.4,1.2,0.4,1.7,0c0.5-0.4,0.8-0.8,0.8-1.5C397.9,45.4,346,19.8,307.5,10.9z M396.3,160.8l-36.1-20.7c-0.5-0.2-1.1-0.4-1.5-0.1
	c-0.5,0.2-0.8,0.7-1,1.2l-5.1,25.2c-3.8-4.2-11.8-12.4-22.6-18.3c6.8-68.9-14-120.2-20-133.3C347.8,24.3,393.8,50.1,396.3,160.8z
	 M263,412.8c-2.1,0.2-4.3,0.4-6.5,0.6c17.7-47,28.7-222.2,30.2-248.4l0.4,0.2c0.4,0.2,0.8,0.4,1.3,0.2c0.5-0.1,0.8-0.4,1.1-0.7
	l13.3-20.6c0.4,0,0.6,0,1,0c19.4,0,35.7,13.8,43.6,21.7c-29.8,95.9-76.2,239.5-83.4,245.8C263.4,412,263.1,412.3,263,412.8z
	 M249.6,414.1c-1.9-24.5-56.4-197.3-68.4-235.3l16.9-27.5l35.7,23.2c0.7,0.5,1.7,0.4,2.3-0.4l1.1-1.2c7.1,93.5,16.1,230.7,13,241
	C250,414.1,249.8,414.1,249.6,414.1z M145.9,156.4c-1.4-92.1,22.9-134.6,25.5-138.9c16.1-7.9,32.5-12.4,49.5-13.7
	c-3.9,15.2-23.9,94-25.8,146l-16.7,27.3l-26.2-26.3c-0.4-0.4-0.8-0.6-1.4-0.5c-0.5,0-1,0.4-1.3,0.7L145.9,156.4z M283.4,162.8
	c-0.8,14.9-12,198.8-29.6,248.2c2.1-34.3-11.5-216.3-13.6-241.6l19.6-22.6L283.4,162.8z M288.4,10.6l0.7,0.1
	c5.1,0.8,10.7,1.8,16.7,3.1c3.2,6.4,27.9,59.2,21.1,132.6c-7.4-3.6-15.8-6.1-25-5.6c-0.6,0-1.1,0.4-1.3,0.7l-12.9,19.9l-20.9-14.3
	c14-55.9-0.6-127-3.8-141c5.2,0.8,10.5,1.8,15.6,2.7C281.7,9.4,285.1,10.1,288.4,10.6z M259,5.6c2.3,9.8,18.3,82.5,4.4,139.5l-3-2
	c-0.7-0.5-1.7-0.4-2.3,0.2l-21.1,24.3l0,0l-2.7,3.2l-35.9-23.3c2.5-53.1,23-132.3,26.1-143.9c2.4-0.1,4.6-0.2,7-0.2
	C241.2,3.4,250.2,4.3,259,5.6z M121.7,192.6l-15.8-23c-1.1-6.5-14.8-98.5,40.9-137.6c6.3-4.4,12.7-8.3,19-11.8
	c-7.3,14-25.5,57.8-23.3,141.2L121.7,192.6z M151.2,154.6l26.2,26.4c0.4,0.4,0.7,0.5,1.1,0.5c27.6,87.2,66.9,215.9,68,232.4
	c-16.7-17.4-112.6-207.8-119.9-222.3L151.2,154.6z M311.1,464.3c-2,0.2-5.8,0.7-11.1,1.4c-2.3-5.7-1-23.3,0.5-35.1
	c4.8-0.4,8.5-0.7,10.5-0.8v34.5H311.1z M296.7,466.1c-6.4,0.8-14.4,1.9-22.7,3V433c8.6-0.8,16.7-1.5,23.2-2.1
	C296.2,437.8,294.2,457.8,296.7,466.1z M270.5,469.6c-9.5,1.2-19.5,2.5-28.6,3.7c-1.3-5.4-1.8-24-1.8-36.4
	c9.6-1.3,20.2-2.4,30.3-3.5V469.6z M236.8,437.2c0,7,0.1,28.6,1.8,36.4c-11.5,1.4-20.9,2.6-24.9,3.1l-1.9-34.9
	C216.8,440.3,226,438.7,236.8,437.2z M208.5,442.5l1.9,34.5l-18.4,1.4c0-11.3-0.1-23.6-0.1-33.4
	C193.9,444.2,201.4,443.1,208.5,442.5z M191.9,496.3c0-4.3,0-9.3-0.1-14.5l20.4-1.5c4.8-0.4,85-10.7,98.8-12.5v15.1L191.9,496.3z
	 M311.1,416.6v9.8c-12,1-84.6,6.7-101.4,12.7c-9.8,0.8-15,1.7-17.9,2.5c0-6.9,0-12.3,0.1-14.8c8.6-1.8,58.6-11.7,96.8-11.7
	C297.2,415.1,304.9,415.5,311.1,416.6z M340.3,289.4c-50.7,116.9-63,123.2-65.5,122.4c-0.6-0.2-1.2,0-1.7,0.4
	c-1.9,0.1-3.8,0.2-5.7,0.4c4-6.5,14-30.8,44.2-123.2c17.5-53.7,34.4-107.7,38.3-120.4c1.4,1.5,2.3,2.6,2.3,2.6
	c0.4,0.5,1.1,0.7,1.8,0.6c0.6-0.1,1.2-0.7,1.3-1.3l5.4-26.3l32,18.4C388.9,172.3,365.6,231.5,340.3,289.4z"/>
</svg>
