<?xml version="1.0" encoding="utf-8"?>
<!-- Generator: Adobe Illustrator 18.1.0, SVG Export Plug-In . SVG Version: 6.00 Build 0)  -->
<svg version="1.1" id="Layer_1" xmlns="http://www.w3.org/2000/svg" xmlns:xlink="http://www.w3.org/1999/xlink" x="0px" y="0px"
	 viewBox="0 0 500 500" enable-background="new 0 0 500 500" xml:space="preserve">
<g>
	<circle fill="#010101" cx="165.8" cy="412.2" r="36.3"/>
	<circle fill="#010101" cx="372.6" cy="412.2" r="36.3"/>
	<polygon fill="#010101" points="292.5,112.9 85,112.9 102.7,153.3 482.2,153.3 500,112.9 	"/>
	<polygon fill="#010101" points="162.5,289.4 292.5,289.4 422.4,289.4 440.2,248.9 144.8,248.9 	"/>
	<polygon fill="#010101" points="132.6,221.3 452.3,221.3 470.1,181 114.9,181 	"/>
	<path fill="#010101" d="M410.8,315.8H141.6L35.4,62.7c-3.9-9.3-14.7-13.8-24.2-9.9C1.9,56.7-2.5,67.5,1.4,77l110.2,262.7
		c2.1,5.1,6.3,8.7,11.1,10.3c2.8,1.7,6.1,2.8,9.7,2.8h278.4c10.1,0,18.4-8.3,18.4-18.4C429.2,324.1,420.9,315.8,410.8,315.8z"/>
</g>
</svg>
