<?xml version="1.0" encoding="utf-8"?>
<!-- Generator: Adobe Illustrator 15.1.0, SVG Export Plug-In . SVG Version: 6.00 Build 0)  -->
<!DOCTYPE svg PUBLIC "-//W3C//DTD SVG 1.1//EN" "http://www.w3.org/Graphics/SVG/1.1/DTD/svg11.dtd">
<svg version="1.1" id="Layer_1" xmlns="http://www.w3.org/2000/svg" xmlns:xlink="http://www.w3.org/1999/xlink" x="0px" y="0px"
	 width="500px" height="500px" viewBox="0 0 500 500" enable-background="new 0 0 500 500" xml:space="preserve">
<g>
	<path fill="#010101" d="M296.025,266.018c8.396-10.763,20.989-26.897,34.975-44.874c-0.019,0.363-0.105,0.702-0.105,1.065
		c0,11.071,9.007,20.078,20.084,20.078c11.07,0,20.078-9.007,20.078-20.078c0-11.077-9.008-20.083-20.078-20.083
		c-2.088,0-4.066,0.413-5.963,1.004c28.302-36.397,58.514-75.4,70.545-91.449c0,0-6.721-20.183-25.215-18.494
		c0,0-51.005,89.508-103.789,123.108c-0.413-2.625-0.875-5.119-1.275-7.793L265.943,99.908c0,0-52.107,15.13-68.92,35.307
		c0,0,5.446,7.812,11.638,22.561c-21.661-1.904-53.05-12.481-53.05-12.481c-9.469,15.13-7.337,26.897-7.337,26.897
		c17.891,11.508,54.639,17.169,71.254,19.227c8.329,35.061,11.73,85.418-7.048,147.894
		c-47.819-17.041-109.598-76.343-109.598-76.343c0,8.402,1.682,57.158,21.858,64.236c14.613,5.126,53.019,35.831,73.09,52.379
		c-15.704,36.877-39.096,77.181-73.09,120.416h321.082C445.822,500,343.068,475.851,296.025,266.018z M350.979,214.743
		c4.115,0,7.461,3.351,7.461,7.466c0,4.116-3.346,7.461-7.461,7.461s-7.467-3.345-7.467-7.461
		C343.512,218.094,346.863,214.743,350.979,214.743z"/>
	<path fill="#010101" d="M341.177,90.66c0-14.139-11.502-25.641-25.641-25.641s-25.641,11.502-25.641,25.641
		c0,14.139,11.502,25.641,25.641,25.641S341.177,104.799,341.177,90.66z M315.536,103.684c-7.184,0-13.023-5.84-13.023-13.024
		c0-7.177,5.84-13.023,13.023-13.023s13.023,5.847,13.023,13.023C328.56,97.844,322.72,103.684,315.536,103.684z"/>
	<path fill="#010101" d="M299.057,134.974c-11.071,0-20.084,9.013-20.084,20.084c0,11.077,9.013,20.083,20.084,20.083
		c11.07,0,20.077-9.007,20.077-20.083C319.134,143.987,310.127,134.974,299.057,134.974z M299.057,162.524
		c-4.122,0-7.467-3.351-7.467-7.466c0-4.116,3.345-7.467,7.467-7.467c4.115,0,7.461,3.351,7.461,7.467
		C306.518,159.173,303.172,162.524,299.057,162.524z"/>
	<path fill="#010101" d="M404.811,279.787c0-11.077-9.007-20.084-20.078-20.084c-11.076,0-20.083,9.007-20.083,20.084
		c0,11.07,9.007,20.077,20.083,20.077C395.804,299.864,404.811,290.857,404.811,279.787z M377.267,279.787
		c0-4.115,3.351-7.467,7.466-7.467c4.116,0,7.461,3.352,7.461,7.467s-3.345,7.46-7.461,7.46
		C380.617,287.247,377.267,283.902,377.267,279.787z"/>
	<path fill="#010101" d="M374.284,320.552c0-11.077-9.007-20.083-20.077-20.083c-11.077,0-20.084,9.006-20.084,20.083
		c0,11.071,9.007,20.078,20.084,20.078C365.277,340.63,374.284,331.623,374.284,320.552z M354.207,328.013
		c-4.115,0-7.467-3.346-7.467-7.461s3.352-7.467,7.467-7.467s7.46,3.352,7.46,7.467S358.322,328.013,354.207,328.013z"/>
	<path fill="#010101" d="M392.039,155.064c0,11.071,9.008,20.078,20.084,20.078c11.071,0,20.078-9.007,20.078-20.078
		c0-11.077-9.007-20.083-20.078-20.083C401.047,134.98,392.039,143.987,392.039,155.064z M419.584,155.064
		c0,4.116-3.346,7.46-7.461,7.46s-7.467-3.345-7.467-7.46c0-4.122,3.352-7.466,7.467-7.466S419.584,150.942,419.584,155.064z"/>
	<path fill="#010101" d="M208.144,222.203c0-11.077-9.007-20.084-20.084-20.084c-11.07,0-20.083,9.007-20.083,20.084
		s9.013,20.084,20.083,20.084C199.137,242.287,208.144,233.28,208.144,222.203z M180.593,222.203c0-4.115,3.352-7.467,7.467-7.467
		s7.467,3.352,7.467,7.467s-3.352,7.467-7.467,7.467S180.593,226.318,180.593,222.203z"/>
	<path fill="#010101" d="M134.295,229.115c-11.071,0-20.083,9.007-20.083,20.084c0,11.07,9.013,20.077,20.083,20.077
		s20.078-9.007,20.078-20.077C154.373,238.122,145.366,229.115,134.295,229.115z M134.295,256.66c-4.122,0-7.467-3.346-7.467-7.461
		s3.345-7.467,7.467-7.467c4.116,0,7.46,3.352,7.46,7.467S138.411,256.66,134.295,256.66z"/>
	<path fill="#010101" d="M160.516,119.862c0,9.746,7.929,17.681,17.687,17.681c9.746,0,17.681-7.935,17.681-17.681
		c0-9.752-7.935-17.688-17.681-17.688C168.444,102.175,160.516,110.11,160.516,119.862z M183.267,119.862
		c0,2.791-2.273,5.064-5.064,5.064c-2.797,0-5.07-2.273-5.07-5.064c0-2.797,2.273-5.07,5.07-5.07
		C180.993,114.792,183.267,117.065,183.267,119.862z"/>
	<path fill="#010101" d="M91.017,148.916c9.746,0,17.681-7.929,17.681-17.675c0-9.752-7.935-17.687-17.681-17.687
		c-9.758,0-17.687,7.935-17.687,17.687C73.33,140.987,81.258,148.916,91.017,148.916z M91.017,126.17
		c2.791,0,5.064,2.273,5.064,5.07c0,2.791-2.273,5.058-5.064,5.058c-2.797,0-5.07-2.267-5.07-5.058
		C85.946,128.444,88.22,126.17,91.017,126.17z"/>
	<path fill="#010101" d="M109.942,104.756c9.746,0,17.681-7.929,17.681-17.675c0-9.752-7.935-17.688-17.681-17.688
		c-9.759,0-17.688,7.935-17.688,17.688C92.255,96.827,100.184,104.756,109.942,104.756z M109.942,82.011
		c2.791,0,5.064,2.273,5.064,5.07c0,2.791-2.273,5.058-5.064,5.058c-2.797,0-5.07-2.267-5.07-5.058
		C104.872,84.284,107.146,82.011,109.942,82.011z"/>
	<path fill="#010101" d="M248.73,35.362c9.747,0,17.681-7.929,17.681-17.675C266.411,7.935,258.477,0,248.73,0
		c-9.758,0-17.687,7.935-17.687,17.688C231.043,27.434,238.972,35.362,248.73,35.362z M248.73,12.617
		c2.791,0,5.064,2.273,5.064,5.07c0,2.791-2.273,5.058-5.064,5.058c-2.797,0-5.07-2.267-5.07-5.058
		C243.66,14.891,245.933,12.617,248.73,12.617z"/>
	<path fill="#010101" d="M337.049,148.916c9.753,0,17.682-7.929,17.682-17.675c0-9.752-7.929-17.687-17.682-17.687
		c-9.752,0-17.687,7.935-17.687,17.687C319.362,140.987,327.297,148.916,337.049,148.916z M337.049,126.17
		c2.791,0,5.064,2.273,5.064,5.07c0,2.791-2.273,5.058-5.064,5.058c-2.797,0-5.069-2.267-5.069-5.058
		C331.979,128.444,334.252,126.17,337.049,126.17z"/>
	<path fill="#010101" d="M331.979,364.65c0,9.752,7.935,17.681,17.687,17.681c9.753,0,17.682-7.929,17.682-17.681
		c0-9.753-7.929-17.682-17.682-17.682C339.914,346.969,331.979,354.897,331.979,364.65z M354.73,364.65
		c0,2.791-2.273,5.063-5.064,5.063c-2.797,0-5.07-2.272-5.07-5.063s2.273-5.064,5.07-5.064
		C352.457,359.586,354.73,361.859,354.73,364.65z"/>
	<path fill="#010101" d="M400.135,338.172c9.752,0,17.681-7.929,17.681-17.682c0-9.752-7.929-17.681-17.681-17.681
		c-9.753,0-17.688,7.929-17.688,17.681C382.447,330.243,390.382,338.172,400.135,338.172z M400.135,315.427
		c2.791,0,5.064,2.272,5.064,5.063s-2.273,5.064-5.064,5.064c-2.797,0-5.07-2.273-5.07-5.064S397.338,315.427,400.135,315.427z"/>
	<path fill="#010101" d="M443.05,282.64c0-9.753-7.929-17.682-17.681-17.682c-9.753,0-17.688,7.929-17.688,17.682
		c0,9.752,7.935,17.681,17.688,17.681C435.121,300.32,443.05,292.392,443.05,282.64z M420.299,282.64
		c0-2.791,2.273-5.064,5.07-5.064c2.79,0,5.063,2.273,5.063,5.064c0,2.79-2.273,5.063-5.063,5.063
		C422.572,287.703,420.299,285.43,420.299,282.64z"/>
	<path fill="#010101" d="M362.283,111.064c9.753,0,17.682-7.929,17.682-17.681c0-9.746-7.929-17.681-17.682-17.681
		c-9.752,0-17.688,7.935-17.688,17.681C344.596,103.136,352.531,111.064,362.283,111.064z M362.283,88.319
		c2.791,0,5.064,2.273,5.064,5.064c0,2.797-2.273,5.064-5.064,5.064c-2.797,0-5.07-2.267-5.07-5.064
		C357.213,90.593,359.486,88.319,362.283,88.319z"/>
	<path fill="#010101" d="M144.208,188.35c-11.077,0-20.084,9.013-20.084,20.09c0,11.064,9.007,20.071,20.084,20.071
		c11.071,0,20.078-9.007,20.078-20.071C164.286,197.363,155.279,188.35,144.208,188.35z M144.208,215.895
		c-4.122,0-7.467-3.345-7.467-7.454c0-4.122,3.345-7.473,7.467-7.473c4.115,0,7.46,3.352,7.46,7.473
		C151.668,212.549,148.323,215.895,144.208,215.895z"/>
	<path fill="#010101" d="M136.735,168.839c0-11.077-9.007-20.09-20.078-20.09c-11.077,0-20.083,9.013-20.083,20.09
		c0,11.071,9.007,20.078,20.083,20.078C127.729,188.917,136.735,179.91,136.735,168.839z M116.657,176.3
		c-4.121,0-7.466-3.345-7.466-7.46c0-4.122,3.345-7.473,7.466-7.473c4.116,0,7.461,3.352,7.461,7.473
		C124.118,172.955,120.773,176.3,116.657,176.3z"/>
	<path fill="#010101" d="M154.373,123.774c0-11.077-9.007-20.09-20.078-20.09s-20.083,9.013-20.083,20.09
		c0,11.071,9.013,20.078,20.083,20.078S154.373,134.845,154.373,123.774z M134.295,131.234c-4.122,0-7.467-3.345-7.467-7.46
		c0-4.122,3.345-7.473,7.467-7.473c4.116,0,7.46,3.351,7.46,7.473C141.756,127.89,138.411,131.234,134.295,131.234z"/>
	<path fill="#010101" d="M339.089,298.73c6.758-1.127,12.672-4.817,16.652-10.393c3.979-5.575,5.544-12.371,4.417-19.116
		c-2.298-13.794-15.297-23.473-29.51-21.07c-6.758,1.127-12.666,4.818-16.646,10.393c-3.979,5.575-5.551,12.364-4.423,19.116
		c2.069,12.414,12.697,21.421,25.265,21.421C336.242,299.082,337.665,298.971,339.089,298.73z M322.023,275.592
		c-0.573-3.432,0.228-6.882,2.249-9.716c2.021-2.834,5.021-4.707,8.452-5.279c0.727-0.124,1.454-0.179,2.168-0.179
		c6.377,0,11.768,4.571,12.821,10.88c0.572,3.431-0.222,6.875-2.243,9.709c-2.021,2.834-5.027,4.707-8.458,5.279
		C329.798,287.5,323.194,282.603,322.023,275.592z"/>
	<path fill="#010101" d="M118.186,231.549c3.979-5.582,5.557-12.377,4.423-19.135c-2.298-13.788-15.303-23.466-29.516-21.063
		c-13.941,2.335-23.392,15.574-21.063,29.51c2.07,12.414,12.691,21.427,25.258,21.427c1.405,0,2.828-0.117,4.251-0.357
		C108.291,240.809,114.206,237.118,118.186,231.549z M107.922,224.211c-2.021,2.834-5.027,4.701-8.459,5.273
		c-7.239,1.226-13.818-3.684-14.989-10.701c-1.183-7.079,3.616-13.806,10.701-14.989c0.727-0.123,1.454-0.179,2.168-0.179
		c6.376,0,11.767,4.571,12.82,10.88C110.743,217.928,109.942,221.384,107.922,224.211z"/>
	<path fill="#010101" d="M405.525,182.75c-10.541,1.756-19.764,7.51-25.974,16.215c-6.204,8.699-8.649,19.289-6.894,29.83
		c3.229,19.369,19.807,33.428,39.422,33.428c2.205,0,4.436-0.19,6.629-0.555c10.535-1.762,19.764-7.521,25.967-16.221
		c6.211-8.699,8.662-19.295,6.9-29.836c-3.229-19.363-19.807-33.416-39.41-33.416C409.955,182.196,407.719,182.38,405.525,182.75z
		 M439.132,217.693c2.489,14.896-7.603,29.042-22.505,31.53c-1.504,0.253-3.037,0.382-4.547,0.382
		c-13.424,0-24.766-9.623-26.978-22.88c-1.201-7.22,0.475-14.478,4.726-20.435c4.244-5.951,10.559-9.894,17.773-11.095
		c1.516-0.252,3.049-0.382,4.564-0.382C425.578,194.812,436.92,204.436,439.132,217.693z"/>
	<path fill="#010101" d="M210.682,106.758c2.008,0,4.042-0.167,6.038-0.499c9.586-1.608,17.977-6.851,23.632-14.767
		c5.655-7.917,7.886-17.564,6.277-27.15c-2.938-17.625-18.032-30.415-35.873-30.415c-2.015,0-4.048,0.167-6.038,0.499
		c-9.599,1.602-17.989,6.845-23.639,14.761c-5.649,7.917-7.879,17.558-6.278,27.15C177.734,93.962,192.828,106.758,210.682,106.758z
		 M191.35,56.518c3.696-5.175,9.179-8.6,15.445-9.648c1.331-0.222,2.655-0.326,3.961-0.326c11.656,0,21.507,8.36,23.429,19.88
		c1.047,6.266-0.413,12.562-4.103,17.737c-3.69,5.175-9.179,8.606-15.445,9.653c-13.184,2.2-25.252-6.739-27.39-19.554
		C186.199,67.995,187.659,61.693,191.35,56.518z"/>
	<path fill="#010101" d="M148.927,285.264c2.686,16.123,16.486,27.821,32.818,27.821c1.83,0,3.69-0.153,5.514-0.456
		c8.767-1.466,16.443-6.265,21.612-13.51c5.168-7.239,7.208-16.061,5.742-24.828c-2.692-16.115-16.492-27.815-32.812-27.815
		c-1.842,0-3.696,0.154-5.52,0.462C158.181,249.957,145.908,267.151,148.927,285.264z M178.363,259.383
		c1.152-0.191,2.304-0.29,3.438-0.29c10.128,0,18.692,7.271,20.367,17.281c0.912,5.446-0.357,10.923-3.567,15.42
		s-7.978,7.479-13.424,8.391c-11.508,1.892-21.944-5.864-23.805-16.991C159.499,271.938,167.113,261.256,178.363,259.383z"/>
	<path fill="#010101" d="M260.047,57.559c0,11.071,9.014,20.078,20.084,20.078s20.078-9.007,20.078-20.078
		s-9.008-20.083-20.078-20.083S260.047,46.488,260.047,57.559z M280.131,50.092c4.115,0,7.461,3.352,7.461,7.467
		c0,4.116-3.346,7.46-7.461,7.46c-4.121,0-7.467-3.345-7.467-7.46C272.664,53.444,276.01,50.092,280.131,50.092z"/>
	<path fill="#010101" d="M326.601,63.868c11.077,0,20.084-9.007,20.084-20.078c0-11.077-9.007-20.084-20.084-20.084
		s-20.083,9.007-20.083,20.084C306.518,54.861,315.523,63.868,326.601,63.868z M326.601,36.323c4.115,0,7.467,3.345,7.467,7.467
		c0,4.115-3.352,7.46-7.467,7.46s-7.467-3.345-7.467-7.46C319.134,39.668,322.485,36.323,326.601,36.323z"/>
	<path fill="#010101" d="M150.763,91.412c11.077,0,20.084-9.007,20.084-20.078c0-11.077-9.007-20.084-20.084-20.084
		c-11.077,0-20.083,9.007-20.083,20.084C130.679,82.405,139.686,91.412,150.763,91.412z M150.763,63.868
		c4.116,0,7.467,3.345,7.467,7.467c0,4.115-3.351,7.46-7.467,7.46c-4.115,0-7.466-3.345-7.466-7.46
		C143.296,67.213,146.647,63.868,150.763,63.868z"/>
	<path fill="#010101" d="M377.069,70.17c11.076,0,20.083-9,20.083-20.071s-9.007-20.084-20.083-20.084
		c-11.077,0-20.084,9.013-20.084,20.084S365.992,70.17,377.069,70.17z M377.069,42.632c4.115,0,7.467,3.352,7.467,7.467
		c0,4.109-3.352,7.454-7.467,7.454s-7.467-3.345-7.467-7.454C369.603,45.983,372.954,42.632,377.069,42.632z"/>
	<path fill="#010101" d="M74.26,244.505c-11.077,0-20.084,9.007-20.084,20.084c0,11.064,9.007,20.071,20.084,20.071
		s20.084-9.007,20.084-20.071C94.344,253.512,85.337,244.505,74.26,244.505z M74.26,272.043c-4.115,0-7.467-3.346-7.467-7.454
		c0-4.116,3.352-7.467,7.467-7.467s7.467,3.351,7.467,7.467C81.727,268.697,78.375,272.043,74.26,272.043z"/>
	<path fill="#010101" d="M88.035,169.96c0-11.071-9.007-20.083-20.084-20.083c-11.077,0-20.084,9.013-20.084,20.083
		s9.007,20.072,20.084,20.072C79.028,190.032,88.035,181.031,88.035,169.96z M60.484,169.96c0-4.115,3.352-7.466,7.467-7.466
		s7.467,3.351,7.467,7.466c0,4.109-3.352,7.455-7.467,7.455S60.484,174.07,60.484,169.96z"/>
</g>
</svg>
